<?xml version="1.0" standalone="no"?>
<!DOCTYPE svg PUBLIC "-//W3C//DTD SVG 20010904//EN"
 "http://www.w3.org/TR/2001/REC-SVG-20010904/DTD/svg10.dtd">
<svg version="1.0" xmlns="http://www.w3.org/2000/svg"
 width="1024.000000pt" height="1024.000000pt" viewBox="0 0 1024.000000 1024.000000"
 preserveAspectRatio="xMidYMid meet">

<g transform="translate(0.000000,1024.000000) scale(0.100000,-0.100000)"
fill="#000000" stroke="none">
<path d="M5115 6313 c-63 -9 -143 -36 -205 -70 -64 -35 -66 -35 -130 -25 -167
28 -308 22 -463 -18 -226 -57 -439 -190 -562 -350 -98 -128 -155 -276 -155
-406 0 -70 6 -94 25 -94 8 0 14 29 19 94 8 114 33 199 83 286 46 79 166 207
249 266 88 63 237 131 351 160 119 31 309 43 396 25 31 -7 57 -14 57 -15 0 -2
-37 -41 -83 -87 -105 -107 -166 -189 -261 -354 -125 -216 -241 -355 -395 -471
-204 -153 -413 -224 -658 -224 -197 0 -351 30 -813 160 -515 144 -663 174
-870 173 -160 0 -248 -17 -357 -70 -102 -49 -206 -173 -213 -253 -5 -54 -1
-61 27 -58 24 3 29 9 35 45 21 124 130 223 299 269 79 22 307 25 419 5 140
-25 328 -70 547 -132 516 -145 667 -177 878 -186 212 -8 367 24 542 113 144
74 297 197 393 317 24 31 45 55 47 53 2 -1 -20 -65 -48 -142 -27 -76 -81 -238
-119 -359 -197 -627 -284 -822 -444 -988 -82 -85 -56 -115 45 -52 102 65 222
223 308 406 66 141 114 276 211 589 222 719 336 980 515 1169 l61 64 54 -28
c85 -43 174 -139 219 -237 47 -101 61 -163 61 -271 -1 -212 -75 -381 -240
-548 -74 -74 -112 -104 -175 -136 -99 -51 -173 -73 -241 -73 -64 0 -100 13
-137 48 -30 29 -54 20 -42 -16 16 -53 140 -87 255 -71 133 19 227 56 346 135
209 138 350 371 362 600 14 266 -105 477 -335 596 -34 18 -63 37 -63 41 0 14
121 64 185 77 34 7 85 10 117 6 89 -9 140 -40 184 -112 9 -14 15 -16 24 -8 31
31 -48 120 -127 143 -40 12 -141 20 -178 14z"/>
<path d="M9170 5723 c-36 -109 -86 -171 -179 -217 -92 -47 -163 -60 -331 -60
-170 0 -241 9 -600 79 -278 54 -413 69 -555 62 -259 -13 -447 -107 -661 -329
-152 -158 -297 -362 -508 -718 -177 -298 -224 -359 -274 -360 -17 0 -27 10
-40 38 -14 30 -17 69 -17 222 0 207 7 266 71 594 43 216 44 229 28 247 -20 22
-86 26 -102 6 -14 -16 -54 -196 -81 -357 -58 -354 -51 -604 22 -733 26 -47 62
-67 117 -67 73 0 119 58 345 440 184 311 345 529 508 687 123 119 222 186 338
230 209 78 411 71 914 -31 303 -62 559 -77 715 -42 157 35 266 110 320 220 36
73 38 119 3 124 -17 3 -24 -5 -33 -35z"/>
<path d="M5406 5248 c-42 -42 -51 -98 -31 -188 l14 -65 -26 -20 c-100 -76
-147 -145 -159 -236 -9 -62 21 -131 68 -155 67 -35 141 -17 219 53 l40 36 17
-24 c40 -58 69 -79 112 -79 31 0 47 6 65 26 26 28 33 64 14 64 -6 0 -20 -11
-31 -25 -11 -14 -26 -25 -33 -25 -22 0 -74 50 -95 90 l-19 37 37 73 c45 90 75
113 150 120 42 4 57 9 57 20 0 10 -13 16 -40 18 -90 8 -156 -38 -196 -135 -18
-44 -24 -52 -34 -41 -14 15 -75 160 -75 178 0 7 22 32 49 56 27 24 56 59 65
78 43 92 1 176 -89 176 -40 0 -52 -5 -79 -32z m130 -33 c24 -36 5 -93 -48
-148 l-41 -42 -8 25 c-4 14 -7 48 -8 75 -2 96 64 152 105 90z m-66 -427 l37
-77 -36 -34 c-46 -45 -72 -57 -115 -57 -51 0 -70 33 -63 109 6 67 24 106 75
163 l36 40 15 -33 c8 -19 31 -69 51 -111z"/>
</g>
</svg>
